HIERARCHY
ROOT Hips
{
	OFFSET 0.00 0.00 0.00
	CHANNELS 6 Xposition Yposition Zposition Xrotation Yrotation Zrotation
	JOINT Spine
	{
		OFFSET 0.00000 1.15266 1.72900
		CHANNELS 3 Xrotation Yrotation Zrotation
		JOINT Spine1
		{
			OFFSET 0.00000 0.40032 2.27031
			CHANNELS 3 Xrotation Yrotation Zrotation
			JOINT Spine2
			{
				OFFSET 0.00000 0.20092 2.29656
				CHANNELS 3 Xrotation Yrotation Zrotation
				JOINT Spine3
				{
					OFFSET 0.00000 0.00000 2.30533
					CHANNELS 3 Xrotation Yrotation Zrotation
					JOINT Neck
					{
						OFFSET 0.00000 -0.86449 6.05149
						CHANNELS 3 Xrotation Yrotation Zrotation
						JOINT Head
						{
							OFFSET 0.00000 -0.55043 3.12167
							CHANNELS 3 Xrotation Yrotation Zrotation
							End Site
							{
								OFFSET 0.00000 0.00000 3.73175
							}
						}
					}
					JOINT RightShoulder
					{
						OFFSET -0.78828 -1.31380 4.25672
						CHANNELS 3 Xrotation Yrotation Zrotation
						JOINT RightArm
						{
							OFFSET -3.91513 0.00000 0.00000
							CHANNELS 3 Xrotation Yrotation Zrotation
							JOINT RightForeArm
							{
								OFFSET -6.91491 0.00000 0.00000
								CHANNELS 3 Xrotation Yrotation Zrotation
								JOINT RightHand
								{
									OFFSET -6.09622 0.00000 0.00000
									CHANNELS 3 Xrotation Yrotation Zrotation
									JOINT RightHandEnd
									{
										OFFSET -1.74995 0.00000 0.00000
										CHANNELS 3 Xrotation Yrotation Zrotation
										End Site
										{
											OFFSET -1.74995 0.00000 0.00000
										}
									}
									JOINT RightHandThumb1
									{
										OFFSET -0.69998 -1.16663 -0.46665
										CHANNELS 3 Yrotation Xrotation Zrotation
										End Site
										{
											OFFSET -1.69032 -0.45292 0.00000
										}
									}
								}
							}
						}
					}
					JOINT LeftShoulder
					{
						OFFSET 0.78828 -1.31380 4.25672
						CHANNELS 3 Xrotation Yrotation Zrotation
						JOINT LeftArm
						{
							OFFSET 3.91513 0.00000 0.00000
							CHANNELS 3 Xrotation Yrotation Zrotation
							JOINT LeftForeArm
							{
								OFFSET 6.91491 0.00000 0.00000
								CHANNELS 3 Xrotation Yrotation Zrotation
								JOINT LeftHand
								{
									OFFSET 6.09622 0.00000 0.00000
									CHANNELS 3 Xrotation Yrotation Zrotation
									JOINT LeftHandEnd
									{
										OFFSET 1.74995 0.00000 0.00000
										CHANNELS 3 Xrotation Yrotation Zrotation
										End Site
										{
											OFFSET 1.74995 0.00000 0.00000
										}
									}
									JOINT LeftHandThumb1
									{
										OFFSET 0.69998 -1.16663 -0.46665
										CHANNELS 3 Yrotation Xrotation Zrotation
										End Site
										{
											OFFSET 1.69032 -0.45292 0.00000
										}
									}
								}
							}
						}
					}
				}
			}
		}
	}
	JOINT RightUpLeg
	{
		OFFSET -2.33857 0.00000 -0.68318
		CHANNELS 3 Xrotation Yrotation Zrotation
		JOINT RightLeg
		{
			OFFSET 0.00000 0.00000 -10.74496
			CHANNELS 3 Xrotation Yrotation Zrotation
			JOINT RightFoot
			{
				OFFSET 0.00000 0.00000 -10.93085
				CHANNELS 3 Xrotation Yrotation Zrotation
				JOINT RightToeBase
				{
					OFFSET 0.00000 -4.08727 -1.48765
					CHANNELS 3 Xrotation Yrotation Zrotation
					End Site
					{
						OFFSET 0.00000 -1.89187 -0.00000
					}
				}
			}
		}
	}
	JOINT LeftUpLeg
	{
		OFFSET 2.33857 0.00000 -0.68318
		CHANNELS 3 Xrotation Yrotation Zrotation
		JOINT LeftLeg
		{
			OFFSET 0.00000 0.00000 -10.74496
			CHANNELS 3 Xrotation Yrotation Zrotation
			JOINT LeftFoot
			{
				OFFSET 0.00000 0.00000 -10.93085
				CHANNELS 3 Xrotation Yrotation Zrotation
				JOINT LeftToeBase
				{
					OFFSET 0.00000 -4.08727 -1.48765
					CHANNELS 3 Xrotation Yrotation Zrotation
					End Site
					{
						OFFSET 0.00000 -1.89187 -0.00000
					}
				}
			}
		}
	}
}
MOTION
Frames: 10
Frame Time: 0.008342
 -0.1204 -116.1956 24.5121 -6.1848 -0.1636 172.8891 4.1496 0.5325 -0.1157 2.3001 -1.3277 -0.0334 -3.5942 0.7995 5.5950 -1.8046 0.2107 0.5001 -0.3556 2.8217 -5.6782 6.6792 0.3983 -8.5181 -9.7245 8.6062 -8.7268 -3.5856 -6.9347 -2.6367 0.0000 0.0000 10.6492 -6.8149 2.4548 -12.7113 0.0000 0.0000 0.0000 -0.0000 0.0000 0.0000 -9.7236 -7.2010 7.4995 1.0095 16.1189 0.9091 -0.0000 -0.0000 -0.8262 -0.7639 -7.5864 10.5975 -0.0000 0.0000 -0.0000 -0.0000 0.0000 0.0000 -8.6294 -2.1798 -3.1580 1.2686 0.0000 0.0000 0.3235 1.3082 13.3483 4.6549 0.0000 0.0000 -5.3742 0.0413 7.4380 0.4857 0.0000 0.0000 -4.6476 0.4997 4.7816 -1.5487 0.0000 -0.0000
 -0.1206 -116.1953 24.5121 -6.1813 -0.1621 172.8921 4.1423 0.5366 -0.1171 2.2977 -1.3332 -0.0338 -3.5884 0.8007 5.5956 -1.8006 0.2080 0.5027 -0.3482 2.8274 -5.6783 6.6744 0.3918 -8.5128 -9.7179 8.5954 -8.7151 -3.5858 -6.9286 -2.6445 0.0000 0.0000 10.6536 -6.8127 2.4710 -12.7130 -0.0000 -0.0000 0.0000 -0.0000 -0.0000 0.0000 -9.7177 -7.1901 7.5000 1.0094 16.1331 0.9174 -0.0000 -0.0000 -0.8255 -0.7249 -7.5926 10.6283 0.0000 -0.0000 0.0000 0.0000 -0.0000 0.0000 -8.6241 -2.1771 -3.1683 1.2667 0.0000 0.0000 0.3216 1.3107 13.3574 4.6545 0.0000 0.0000 -5.3710 0.0441 7.4325 0.4842 0.0000 0.0000 -4.6497 0.5153 4.7833 -1.5565 0.0000 -0.0000
 -0.1209 -116.1949 24.5121 -6.1778 -0.1589 172.8950 4.1303 0.5414 -0.1171 2.2943 -1.3347 -0.0343 -3.5809 0.7971 5.5964 -1.7948 0.2063 0.5043 -0.3343 2.8335 -5.6794 6.6638 0.3834 -8.5051 -9.7096 8.5814 -8.6973 -3.5836 -6.9224 -2.6557 0.0000 0.0000 10.6588 -6.8110 2.4915 -12.7144 0.0000 0.0000 0.0000 -0.0000 -0.0000 0.0000 -9.7094 -7.1750 7.5009 1.0089 16.1504 0.9274 -0.0000 -0.0000 -0.8233 -0.6719 -7.6103 10.6699 0.0000 0.0000 0.0000 -0.0000 0.0000 0.0000 -8.6196 -2.1728 -3.1805 1.2655 0.0000 0.0000 0.3192 1.3149 13.3685 4.6527 0.0000 0.0000 -5.3685 0.0486 7.4263 0.4816 0.0000 0.0000 -4.6544 0.5470 4.7849 -1.5624 0.0000 -0.0000
 -0.1213 -116.1944 24.5121 -6.1712 -0.1527 172.8976 4.1164 0.5510 -0.1169 2.2907 -1.3366 -0.0345 -3.5728 0.7903 5.5976 -1.7864 0.2057 0.5058 -0.3127 2.8401 -5.6809 6.6469 0.3726 -8.4963 -9.7008 8.5661 -8.6728 -3.5780 -6.9175 -2.6709 0.0000 0.0000 10.6633 -6.8106 2.5156 -12.7145 0.0000 -0.0000 0.0000 -0.0000 -0.0000 -0.0000 -9.7010 -7.1576 7.5000 1.0082 16.1729 0.9430 -0.0000 -0.0000 -0.8226 -0.6021 -7.6437 10.7240 -0.0000 0.0000 -0.0000 -0.0000 0.0000 -0.0000 -8.6117 -2.1646 -3.1932 1.2637 0.0000 0.0000 0.3154 1.3208 13.3808 4.6500 0.0000 0.0000 -5.3622 0.0571 7.4218 0.4756 0.0000 0.0000 -4.6606 0.5961 4.7844 -1.5644 0.0000 -0.0000
 -0.1216 -116.1928 24.5122 -6.1418 -0.1470 172.9000 4.1187 0.5633 -0.1161 2.2881 -1.3381 -0.0362 -3.5646 0.7822 5.5991 -1.7764 0.2038 0.5081 -0.2827 2.8469 -5.6830 6.6251 0.3589 -8.4857 -9.6904 8.5525 -8.6408 -3.5698 -6.9161 -2.6902 0.0000 0.0000 10.6669 -6.8121 2.5414 -12.7130 0.0000 0.0000 -0.0000 0.0000 -0.0000 -0.0000 -9.6904 -7.1396 7.4985 1.0056 16.2012 0.9640 -0.0000 -0.0000 -0.8242 -0.5162 -7.6933 10.7926 0.0000 -0.0000 0.0000 0.0000 -0.0000 -0.0000 -8.5744 -2.1541 -3.2058 1.2553 0.0000 0.0000 0.3106 1.3276 13.3935 4.6466 0.0000 0.0000 -5.3245 0.0687 7.4218 0.4568 0.0000 0.0000 -4.6668 0.6644 4.7789 -1.5628 0.0000 -0.0000
 -0.1220 -116.1924 24.5123 -6.1375 -0.1374 172.9042 4.0954 0.5759 -0.1172 2.2844 -1.3399 -0.0356 -3.5568 0.7754 5.5994 -1.7646 0.2023 0.5101 -0.2490 2.8506 -5.6857 6.5963 0.3446 -8.4754 -9.6824 8.5306 -8.6046 -3.5611 -6.9096 -2.7140 0.0000 0.0000 10.6733 -6.8135 2.5672 -12.7126 0.0000 0.0000 -0.0000 0.0000 -0.0000 -0.0000 -9.6836 -7.1162 7.4982 1.0050 16.2274 0.9839 -0.0000 -0.0000 -0.8226 -0.4149 -7.7643 10.8692 -0.0000 0.0000 0.0000 -0.0000 0.0000 0.0000 -8.5691 -2.1425 -3.2214 1.2531 0.0000 0.0000 0.3063 1.3349 13.4067 4.6417 0.0000 0.0000 -5.3227 0.0802 7.4182 0.4499 0.0000 0.0000 -4.6792 0.7485 4.7745 -1.5555 0.0000 -0.0000
 -0.1224 -116.1909 24.5124 -6.1106 -0.1259 172.9043 4.0904 0.5955 -0.1139 2.2822 -1.3442 -0.0370 -3.5504 0.7675 5.6027 -1.7522 0.2011 0.5123 -0.2095 2.8543 -5.6906 6.5649 0.3288 -8.4647 -9.6735 8.5131 -8.5680 -3.5514 -6.9083 -2.7368 0.0000 0.0000 10.6771 -6.8162 2.5926 -12.7081 0.0000 0.0000 0.0000 -0.0000 -0.0000 -0.0000 -9.6763 -7.0927 7.4950 1.0029 16.2574 1.0098 -0.0000 -0.0000 -0.8237 -0.2983 -7.8561 10.9570 0.0000 -0.0000 0.0000 -0.0000 0.0000 0.0000 -8.5377 -2.1264 -3.2211 1.2492 0.0000 0.0000 0.2977 1.3427 13.4087 4.6372 0.0000 0.0000 -5.2875 0.0974 7.4302 0.4261 0.0000 0.0000 -4.6884 0.8481 4.7588 -1.5441 0.0000 -0.0000
 -0.1228 -116.1904 24.5125 -6.1052 -0.1138 172.9085 4.0650 0.6116 -0.1160 2.2800 -1.3465 -0.0365 -3.5456 0.7604 5.6039 -1.7393 0.2000 0.5149 -0.1697 2.8538 -5.6941 6.5292 0.3133 -8.4559 -9.6704 8.4888 -8.5300 -3.5395 -6.9024 -2.7587 0.0000 0.0000 10.6796 -6.8194 2.6158 -12.6996 0.0000 0.0000 -0.0000 -0.0000 -0.0000 -0.0000 -9.6729 -7.0630 7.4979 1.0020 16.2795 1.0310 -0.0000 -0.0000 -0.8241 -0.1693 -7.9658 11.0549 0.0000 -0.0000 -0.0000 0.0000 0.0000 0.0000 -8.5312 -2.1119 -3.2262 1.2467 0.0000 0.0000 0.2917 1.3493 13.4111 4.6316 0.0000 0.0000 -5.2840 0.1118 7.4365 0.4151 0.0000 0.0000 -4.7043 0.9572 4.7440 -1.5292 0.0000 -0.0000
 -0.1231 -116.1886 24.5126 -6.0727 -0.1029 172.9103 4.0648 0.6310 -0.1142 2.2803 -1.3513 -0.0378 -3.5436 0.7543 5.6070 -1.7274 0.1994 0.5171 -0.1285 2.8513 -5.6985 6.4948 0.2986 -8.4486 -9.6679 8.4700 -8.4940 -3.5275 -6.9024 -2.7792 0.0000 0.0000 10.6805 -6.8215 2.6374 -12.6865 0.0000 0.0000 0.0000 0.0000 0.0000 -0.0000 -9.6696 -7.0355 7.4998 1.0015 16.3028 1.0537 -0.0000 -0.0000 -0.8240 -0.0297 -8.0939 11.1574 -0.0000 0.0000 0.0000 0.0000 0.0000 0.0000 -8.4910 -2.0958 -3.2189 1.2386 0.0000 0.0000 0.2833 1.3550 13.4038 4.6266 0.0000 0.0000 -5.2413 0.1291 7.4562 0.3876 0.0000 0.0000 -4.7167 1.0729 4.7189 -1.5116 0.0000 -0.0000
 -0.1234 -116.1878 24.5127 -6.0626 -0.0892 172.9114 4.0469 0.6503 -0.1117 2.2800 -1.3566 -0.0392 -3.5445 0.7503 5.6109 -1.7162 0.1989 0.5198 -0.0914 2.8463 -5.7045 6.4605 0.2851 -8.4435 -9.6695 8.4416 -8.4611 -3.5168 -6.8904 -2.8012 0.0000 0.0000 10.6866 -6.8235 2.6523 -12.6729 0.0000 0.0000 0.0000 0.0000 -0.0000 -0.0000 -9.6714 -6.9987 7.5030 1.0022 16.3117 1.0752 -0.0000 -0.0000 -0.8250 0.1171 -8.2332 11.2654 -0.0000 0.0000 -0.0000 -0.0000 0.0000 0.0000 -8.4807 -2.0799 -3.1980 1.2394 0.0000 0.0000 0.2736 1.3595 13.3830 4.6231 0.0000 0.0000 -5.2275 0.1458 7.4863 0.3672 0.0000 0.0000 -4.7307 1.1886 4.6848 -1.4922 0.0000 -0.0000
